<mxfile host="www.draw.io" modified="2019-10-25T06:09:10.059Z" agent="Mozilla/5.0 (X11; Linux x86_64) AppleWebKit/537.36 (KHTML, like Gecko) Chrome/78.0.3904.70 Safari/537.36" etag="Qf7Km6HEEanHK7hamXA1" version="12.1.5" type="github" pages="1">
  <diagram id="Zjo4HlJO4OxndRUzrG3e" name="Page-1">
    <mxGraphModel dx="1338" dy="760" grid="1" gridSize="10" guides="1" tooltips="1" connect="1" arrows="1" fold="1" page="1" pageScale="1" pageWidth="850" pageHeight="1100" math="0" shadow="0">
      <root>
        <mxCell id="0"/>
        <mxCell id="1" parent="0"/>
        <mxCell id="ytIswbEOPrAvZPpHpCEw-4" style="edgeStyle=orthogonalEdgeStyle;rounded=0;orthogonalLoop=1;jettySize=auto;html=1;exitX=0.5;exitY=1;exitDx=0;exitDy=0;endArrow=none;endFill=0;" edge="1" parent="1" source="ytIswbEOPrAvZPpHpCEw-1">
          <mxGeometry relative="1" as="geometry">
            <mxPoint x="120" y="700" as="targetPoint"/>
          </mxGeometry>
        </mxCell>
        <mxCell id="ytIswbEOPrAvZPpHpCEw-1" value="Sender" style="rounded=0;whiteSpace=wrap;html=1;" vertex="1" parent="1">
          <mxGeometry x="60" y="30" width="120" height="60" as="geometry"/>
        </mxCell>
        <mxCell id="ytIswbEOPrAvZPpHpCEw-6" style="edgeStyle=orthogonalEdgeStyle;rounded=0;orthogonalLoop=1;jettySize=auto;html=1;exitX=0.5;exitY=1;exitDx=0;exitDy=0;endArrow=none;endFill=0;" edge="1" parent="1" source="ytIswbEOPrAvZPpHpCEw-2">
          <mxGeometry relative="1" as="geometry">
            <mxPoint x="680" y="700" as="targetPoint"/>
          </mxGeometry>
        </mxCell>
        <mxCell id="ytIswbEOPrAvZPpHpCEw-2" value="Receiver" style="rounded=0;whiteSpace=wrap;html=1;" vertex="1" parent="1">
          <mxGeometry x="620" y="30" width="120" height="60" as="geometry"/>
        </mxCell>
        <mxCell id="ytIswbEOPrAvZPpHpCEw-5" style="edgeStyle=orthogonalEdgeStyle;rounded=0;orthogonalLoop=1;jettySize=auto;html=1;exitX=0.5;exitY=1;exitDx=0;exitDy=0;endArrow=none;endFill=0;" edge="1" parent="1" source="ytIswbEOPrAvZPpHpCEw-3">
          <mxGeometry relative="1" as="geometry">
            <mxPoint x="400" y="700" as="targetPoint"/>
          </mxGeometry>
        </mxCell>
        <mxCell id="ytIswbEOPrAvZPpHpCEw-3" value="State" style="rounded=0;whiteSpace=wrap;html=1;" vertex="1" parent="1">
          <mxGeometry x="340" y="30" width="120" height="60" as="geometry"/>
        </mxCell>
        <mxCell id="ytIswbEOPrAvZPpHpCEw-7" value="" style="endArrow=classic;html=1;" edge="1" parent="1">
          <mxGeometry width="50" height="50" relative="1" as="geometry">
            <mxPoint x="680" y="100" as="sourcePoint"/>
            <mxPoint x="400" y="100" as="targetPoint"/>
          </mxGeometry>
        </mxCell>
        <mxCell id="ytIswbEOPrAvZPpHpCEw-9" value="creating a session" style="text;html=1;resizable=0;points=[];align=center;verticalAlign=middle;labelBackgroundColor=#ffffff;" vertex="1" connectable="0" parent="ytIswbEOPrAvZPpHpCEw-7">
          <mxGeometry x="0.0929" y="-1" relative="1" as="geometry">
            <mxPoint x="13" y="-9" as="offset"/>
          </mxGeometry>
        </mxCell>
        <mxCell id="ytIswbEOPrAvZPpHpCEw-11" value="" style="endArrow=classic;html=1;" edge="1" parent="1">
          <mxGeometry width="50" height="50" relative="1" as="geometry">
            <mxPoint x="680" y="140" as="sourcePoint"/>
            <mxPoint x="400" y="140" as="targetPoint"/>
          </mxGeometry>
        </mxCell>
        <mxCell id="ytIswbEOPrAvZPpHpCEw-12" value="waiting for a sender" style="text;html=1;resizable=0;points=[];align=center;verticalAlign=middle;labelBackgroundColor=#ffffff;" vertex="1" connectable="0" parent="ytIswbEOPrAvZPpHpCEw-11">
          <mxGeometry x="0.0929" y="-1" relative="1" as="geometry">
            <mxPoint x="13" y="-9" as="offset"/>
          </mxGeometry>
        </mxCell>
        <mxCell id="ytIswbEOPrAvZPpHpCEw-13" value="" style="endArrow=classic;html=1;" edge="1" parent="1">
          <mxGeometry width="50" height="50" relative="1" as="geometry">
            <mxPoint x="120" y="180" as="sourcePoint"/>
            <mxPoint x="400" y="180" as="targetPoint"/>
          </mxGeometry>
        </mxCell>
        <mxCell id="ytIswbEOPrAvZPpHpCEw-14" value="connecting to a session" style="text;html=1;resizable=0;points=[];align=center;verticalAlign=middle;labelBackgroundColor=#ffffff;" vertex="1" connectable="0" parent="ytIswbEOPrAvZPpHpCEw-13">
          <mxGeometry x="0.0929" y="-1" relative="1" as="geometry">
            <mxPoint x="-13" y="-11" as="offset"/>
          </mxGeometry>
        </mxCell>
        <mxCell id="ytIswbEOPrAvZPpHpCEw-20" value="" style="endArrow=classic;html=1;" edge="1" parent="1">
          <mxGeometry width="50" height="50" relative="1" as="geometry">
            <mxPoint x="120" y="240" as="sourcePoint"/>
            <mxPoint x="400" y="240" as="targetPoint"/>
          </mxGeometry>
        </mxCell>
        <mxCell id="ytIswbEOPrAvZPpHpCEw-21" value="transferring" style="text;html=1;resizable=0;points=[];align=center;verticalAlign=middle;labelBackgroundColor=#ffffff;" vertex="1" connectable="0" parent="ytIswbEOPrAvZPpHpCEw-20">
          <mxGeometry x="0.0929" y="-1" relative="1" as="geometry">
            <mxPoint x="-13" y="-11" as="offset"/>
          </mxGeometry>
        </mxCell>
        <mxCell id="ytIswbEOPrAvZPpHpCEw-22" value="" style="endArrow=classic;html=1;" edge="1" parent="1">
          <mxGeometry width="50" height="50" relative="1" as="geometry">
            <mxPoint x="680" y="280" as="sourcePoint"/>
            <mxPoint x="400" y="280" as="targetPoint"/>
          </mxGeometry>
        </mxCell>
        <mxCell id="ytIswbEOPrAvZPpHpCEw-23" value="transferring" style="text;html=1;resizable=0;points=[];align=center;verticalAlign=middle;labelBackgroundColor=#ffffff;" vertex="1" connectable="0" parent="ytIswbEOPrAvZPpHpCEw-22">
          <mxGeometry x="0.0929" y="-1" relative="1" as="geometry">
            <mxPoint x="13" y="-9" as="offset"/>
          </mxGeometry>
        </mxCell>
        <mxCell id="ytIswbEOPrAvZPpHpCEw-24" value="" style="endArrow=classic;html=1;" edge="1" parent="1">
          <mxGeometry width="50" height="50" relative="1" as="geometry">
            <mxPoint x="680" y="360" as="sourcePoint"/>
            <mxPoint x="400" y="360" as="targetPoint"/>
          </mxGeometry>
        </mxCell>
        <mxCell id="ytIswbEOPrAvZPpHpCEw-25" value="transferred" style="text;html=1;resizable=0;points=[];align=center;verticalAlign=middle;labelBackgroundColor=#ffffff;" vertex="1" connectable="0" parent="ytIswbEOPrAvZPpHpCEw-24">
          <mxGeometry x="0.0929" y="-1" relative="1" as="geometry">
            <mxPoint x="13" y="-9" as="offset"/>
          </mxGeometry>
        </mxCell>
        <mxCell id="ytIswbEOPrAvZPpHpCEw-26" value="" style="endArrow=classic;html=1;" edge="1" parent="1">
          <mxGeometry width="50" height="50" relative="1" as="geometry">
            <mxPoint x="120" y="320" as="sourcePoint"/>
            <mxPoint x="400" y="320" as="targetPoint"/>
          </mxGeometry>
        </mxCell>
        <mxCell id="ytIswbEOPrAvZPpHpCEw-27" value="transferred" style="text;html=1;resizable=0;points=[];align=center;verticalAlign=middle;labelBackgroundColor=#ffffff;" vertex="1" connectable="0" parent="ytIswbEOPrAvZPpHpCEw-26">
          <mxGeometry x="0.0929" y="-1" relative="1" as="geometry">
            <mxPoint x="-13" y="-11" as="offset"/>
          </mxGeometry>
        </mxCell>
      </root>
    </mxGraphModel>
  </diagram>
</mxfile>
